<?xml version="1.0" standalone="no"?>
<!DOCTYPE svg PUBLIC "-//W3C//DTD SVG 20010904//EN"
 "http://www.w3.org/TR/2001/REC-SVG-20010904/DTD/svg10.dtd">
<svg version="1.0" xmlns="http://www.w3.org/2000/svg"
 width="111.000000pt" height="503.000000pt" viewBox="0 0 111.000000 503.000000"
 preserveAspectRatio="xMidYMid meet">

<g transform="translate(0.000000,503.000000) scale(0.100000,-0.100000)"
fill="#000000" stroke="none">
<path d="M540 4703 c-139 -13 -264 -84 -346 -196 -61 -83 -86 -167 -86 -292
-1 -113 19 -188 73 -275 103 -167 335 -256 534 -205 240 61 385 242 385 480 0
144 -38 241 -132 341 -97 103 -270 162 -428 147z m172 -54 c231 -49 377 -266
340 -504 -32 -208 -170 -340 -390 -376 -139 -22 -309 34 -392 129 -88 99 -126
212 -118 353 6 95 35 172 96 255 87 118 288 180 464 143z"/>
<path d="M571 4538 c-5 -13 -54 -137 -110 -276 -56 -139 -101 -257 -101 -263
0 -6 9 -9 21 -7 15 2 27 19 43 58 l22 55 118 3 c66 1 123 -2 130 -7 6 -5 27
-51 46 -100 l35 -91 43 0 c32 0 42 4 42 16 0 9 -55 155 -122 325 -98 246 -126
309 -140 309 -10 0 -22 -10 -27 -22z m95 -375 c-5 -5 -196 -7 -196 -2 0 8 78
207 91 231 10 19 17 7 59 -103 27 -68 47 -125 46 -126z"/>
</g>
</svg>
